<svg xmlns="http://www.w3.org/2000/svg" width="20" height="20" viewBox="0 0 5.292 5.292"><path d="M4.498 5.027v-.529l.791.01v-.535l-.791-.004v-.53l-1.054.803 1.054.785m-1.852-.794c0-.582.317-1.084.794-1.376a.258.258 0 00-.265-.211H1.587v-.53h.53c.158 0 .264-.105.264-.264v-.53h.53A.53.53 0 003.44.795V.688a2.115 2.115 0 011.322 1.958v.08c.186.052.344.158.503.29.027-.106.027-.238.027-.37A2.654 2.654 0 002.646 0 2.654 2.654 0 000 2.646a2.654 2.654 0 002.646 2.646c.132 0 .264 0 .37-.027a1.59 1.59 0 01-.37-1.032m-.265.503A2.093 2.093 0 01.53 2.646c0-.159.027-.318.053-.476l1.27 1.27v.264c0 .291.238.53.53.53z"/></svg>