<svg xmlns="http://www.w3.org/2000/svg" viewBox="0 0 11.076 2.058" version="1.1" id="svg8"><defs id="defs2"><style id="style10">.cls-1{fill:#285c77}</style><style id="style876">.cls-1{fill:#fff}</style></defs><g id="layer1" transform="translate(-85.973 -45.092)"><path id="rect51" fill="#223d5b" fill-opacity="1" fill-rule="evenodd" stroke="#223d5b" stroke-width=".035" stroke-opacity="1" d="M85.991 45.11h11.04v2.022h-11.04z"/><g id="g915" transform="matrix(.07 0 0 .07 86.072 45.159)"><path id="path882" transform="translate(-.81 -.84)" d="M10.53 9.6a1.11 1.11 0 00-1-.66H9.1a1.08 1.08 0 00-1 .66L.91 26.07a1.1 1.1 0 00.08 1 1.11 1.11 0 00.92.5h.51a1.11 1.11 0 001-.66l5.89-13.44L15.17 27a1.1 1.1 0 001 .66h.51a1.11 1.11 0 00.92-.5 1.13 1.13 0 00.09-1z" class="cls-1"/><path id="path884" transform="translate(-.81 -.84)" d="M123.27 9.64a1.11 1.11 0 00-1-.66h-.42a1.12 1.12 0 00-1 .66l-7.19 16.47a1.13 1.13 0 00.09 1 1.1 1.1 0 00.92.5h.51a1.11 1.11 0 001-.66L122 13.51 127.91 27a1.11 1.11 0 001 .66h.51a1.13 1.13 0 00.92-.5 1.1 1.1 0 00.08-1z" class="cls-1"/><path id="path886" transform="translate(-.81 -.84)" d="M35.78 10.53a8.42 8.42 0 00-2.16-.94C32.86 9.37 32 9.16 31 9c-1-.16-1.64-.37-2.26-.55a5 5 0 01-1.32-.56 1.51 1.51 0 01-.55-.58 2.15 2.15 0 01-.18-1 3.14 3.14 0 01.21-1.2 2.1 2.1 0 01.63-.81 3.41 3.41 0 011.27-.59 7.59 7.59 0 012-.24 6.67 6.67 0 012.23.32A4.41 4.41 0 0134.7 5a1.08 1.08 0 00.81.36 1.1 1.1 0 00.8-.35l.31-.32a1.11 1.11 0 000-1.49 6.69 6.69 0 00-2.56-1.81 10.48 10.48 0 00-5.81-.19 6.21 6.21 0 00-2.18 1A4.72 4.72 0 0024.59 4a5.27 5.27 0 00-.53 2.38 4.52 4.52 0 00.51 2.22 4.1 4.1 0 001.49 1.55 7.72 7.72 0 002.07.87c.75.2 1.59.39 2.51.56a21.6 21.6 0 012.34.58 5.56 5.56 0 011.42.64 1.91 1.91 0 01.64.7 2.27 2.27 0 01.21 1.06 2 2 0 01-.93 1.85 6.12 6.12 0 01-3.29.74 8.22 8.22 0 01-3-.5A6.79 6.79 0 0125.75 15a1.13 1.13 0 00-1.51-.07l-.36.3a1.14 1.14 0 00-.37.8 1.11 1.11 0 00.32.81A9.6 9.6 0 0027.07 19a10.6 10.6 0 003.94.69 8.45 8.45 0 004.88-1.26 4.57 4.57 0 002-4 4.34 4.34 0 00-2.13-3.94z" class="cls-1"/><path id="path888" transform="translate(-.81 -.84)" d="M58 24.94h-9.24v-5.52h7.78a1.11 1.11 0 001.11-1.1v-.46a1.11 1.11 0 00-1.11-1.1h-7.78v-5.15h9a1.1 1.1 0 001.1-1.1V10a1.1 1.1 0 00-1.1-1.1H47.2a1.1 1.1 0 00-1.1 1.1v16.51a1.1 1.1 0 001.1 1.1H58a1.11 1.11 0 001.1-1.1V26a1.11 1.11 0 00-1.1-1.06z" class="cls-1"/><path id="path890" transform="translate(-.81 -.84)" d="M82 8.94h-.46a1.1 1.1 0 00-1.1 1.1v12.65L69.75 9.36a1.12 1.12 0 00-.86-.42h-.35a1.11 1.11 0 00-1.1 1.1v16.47a1.11 1.11 0 001.1 1.1H69a1.1 1.1 0 001.1-1.1V14.09L80.56 27.2a1.1 1.1 0 00.86.41H82a1.1 1.1 0 001.1-1.1V10A1.1 1.1 0 0082 8.94z" class="cls-1"/><path id="path892" transform="translate(-.81 -.84)" d="M106.9 21.59l-.44-.12a1.12 1.12 0 00-1.24.55 5.26 5.26 0 01-1 1.29 5.54 5.54 0 01-1.23.9 6.48 6.48 0 01-1.41.53 5.48 5.48 0 01-3.78-.36 6.41 6.41 0 01-2-1.5 7.29 7.29 0 01-1.35-2.21 7 7 0 01-.45-2.61 7.53 7.53 0 01.42-2.46 6.78 6.78 0 011.2-2.17 6.17 6.17 0 011.93-1.52 6 6 0 013.92-.42 5.28 5.28 0 011.29.47 4.27 4.27 0 011.11.81 5 5 0 01.93 1.27 1.11 1.11 0 001.3.52l.44-.14a1.06 1.06 0 00.68-.61 1.09 1.09 0 000-.9 7.37 7.37 0 00-2.67-3 7.7 7.7 0 00-4.34-1.19 8.35 8.35 0 00-3.79.85 8.6 8.6 0 00-2.79 2.18 9.64 9.64 0 00-1.7 3 9.78 9.78 0 00-.57 3.25 10 10 0 00.64 3.47 10.24 10.24 0 001.77 3 9.21 9.21 0 002.75 2.2 7.63 7.63 0 003.6.87 8.81 8.81 0 002.18-.28 8.46 8.46 0 004-2.22 6.72 6.72 0 001.36-2 1.09 1.09 0 00-.73-1.51z" class="cls-1"/><path id="path894" transform="translate(-.81 -.84)" d="M148.79 8.94h-13.08a1.1 1.1 0 00-1.1 1.1v.47a1.1 1.1 0 001.1 1.1h5.21v14.9a1.1 1.1 0 001.1 1.1h.46a1.1 1.1 0 001.1-1.1v-14.9h5.21a1.11 1.11 0 001.1-1.1V10a1.11 1.11 0 00-1.1-1.06z" class="cls-1"/><rect id="rect896" rx="1.1" height="2.66" width="15.28" y="24.16" x="22.25" fill="#f2ab29"/><path id="path898" transform="translate(-.81 -.84)" d="M155.66 8.45a1.89 1.89 0 01.76.75 2.48 2.48 0 010 2.25 1.89 1.89 0 01-.76.75 2.43 2.43 0 01-1.14.26 2.46 2.46 0 01-1.14-.26 1.93 1.93 0 01-.75-.75 2.48 2.48 0 010-2.25 1.93 1.93 0 01.75-.75 2.46 2.46 0 011.14-.26 2.43 2.43 0 011.14.26zm-.29 3.29a1.46 1.46 0 00.56-.57 1.75 1.75 0 00.2-.85 1.81 1.81 0 00-.2-.85 1.44 1.44 0 00-.56-.56 1.89 1.89 0 00-1.69 0 1.37 1.37 0 00-.56.56 1.81 1.81 0 00-.2.85 1.75 1.75 0 00.2.85 1.4 1.4 0 00.56.57 2 2 0 001.69 0zm0-1.39a.78.78 0 01-.36.25l.54.85h-.76l-.41-.79h-.17v.79h-.63V9.16h1.1a.87.87 0 01.59.21.77.77 0 01.1 1zm-1.16-.12h.32q.33 0 .33-.27t-.33-.27h-.32z" class="cls-1"/></g></g></svg>