<svg id="Capa_1" data-name="Capa 1" xmlns="http://www.w3.org/2000/svg" viewBox="0 0 155.87 26.82">
<defs><style>.cls-1{fill:#285c77;}.cls-2{fill:#f2ab29;}</style></defs>
<title>logo_asencat_color</title>
<path class="cls-1" d="M10.53,9.6a1.11,1.11,0,0,0-1-.66H9.1a1.08,1.08,0,0,0-1,.66L.91,26.07a1.1,1.1,0,0,0,.08,1,1.11,1.11,0,0,0,.92.5h.51a1.11,1.11,0,0,0,1-.66L9.31,13.47,15.17,27a1.1,1.1,0,0,0,1,.66h.51a1.11,1.11,0,0,0,.92-.5,1.13,1.13,0,0,0,.09-1Z" transform="translate(-0.81 -0.84)"/>
<path class="cls-1" d="M123.27,9.64a1.11,1.11,0,0,0-1-.66h-.42a1.12,1.12,0,0,0-1,.66l-7.19,16.47a1.13,1.13,0,0,0,.09,1,1.1,1.1,0,0,0,.92.5h.51a1.11,1.11,0,0,0,1-.66L122,13.51,127.91,27a1.11,1.11,0,0,0,1,.66h.51a1.13,1.13,0,0,0,.92-.5,1.1,1.1,0,0,0,.08-1Z" transform="translate(-0.81 -0.84)"/>
<path class="cls-1" d="M35.78,10.53a8.42,8.42,0,0,0-2.16-.94C32.86,9.37,32,9.16,31,9s-1.64-.37-2.26-.55a5,5,0,0,1-1.32-.56,1.51,1.51,0,0,1-.55-.58,2.15,2.15,0,0,1-.18-1,3.14,3.14,0,0,1,.21-1.2,2.1,2.1,0,0,1,.63-.81,3.41,3.41,0,0,1,1.27-.59,7.59,7.59,0,0,1,2-.24,6.67,6.67,0,0,1,2.23.32A4.41,4.41,0,0,1,34.7,5a1.08,1.08,0,0,0,.81.36,1.1,1.1,0,0,0,.8-.35l.31-.32a1.11,1.11,0,0,0,0-1.49,6.69,6.69,0,0,0-2.56-1.81,10.48,10.48,0,0,0-5.81-.19,6.21,6.21,0,0,0-2.18,1A4.72,4.72,0,0,0,24.59,4a5.27,5.27,0,0,0-.53,2.38,4.52,4.52,0,0,0,.51,2.22,4.1,4.1,0,0,0,1.49,1.55,7.72,7.72,0,0,0,2.07.87c.75.2,1.59.39,2.51.56a21.6,21.6,0,0,1,2.34.58,5.56,5.56,0,0,1,1.42.64,1.91,1.91,0,0,1,.64.7,2.27,2.27,0,0,1,.21,1.06,2,2,0,0,1-.93,1.85,6.12,6.12,0,0,1-3.29.74,8.22,8.22,0,0,1-3-.5A6.79,6.79,0,0,1,25.75,15a1.13,1.13,0,0,0-1.51-.07l-.36.3a1.14,1.14,0,0,0-.37.8,1.11,1.11,0,0,0,.32.81A9.6,9.6,0,0,0,27.07,19a10.6,10.6,0,0,0,3.94.69,8.45,8.45,0,0,0,4.88-1.26,4.57,4.57,0,0,0,2-4,4.34,4.34,0,0,0-2.13-3.94Z" transform="translate(-0.81 -0.84)"/>
<path class="cls-1" d="M58,24.94H48.76V19.42h7.78a1.11,1.11,0,0,0,1.11-1.1v-.46a1.11,1.11,0,0,0-1.11-1.1H48.76V11.61h9a1.1,1.1,0,0,0,1.1-1.1V10a1.1,1.1,0,0,0-1.1-1.1H47.2A1.1,1.1,0,0,0,46.1,10V26.51a1.1,1.1,0,0,0,1.1,1.1H58a1.11,1.11,0,0,0,1.1-1.1V26A1.11,1.11,0,0,0,58,24.94Z" transform="translate(-0.81 -0.84)"/>
<path class="cls-1" d="M82,8.94h-.46a1.1,1.1,0,0,0-1.1,1.1V22.69L69.75,9.36a1.12,1.12,0,0,0-.86-.42h-.35a1.11,1.11,0,0,0-1.1,1.1V26.51a1.11,1.11,0,0,0,1.1,1.1H69a1.1,1.1,0,0,0,1.1-1.1V14.09L80.56,27.2a1.1,1.1,0,0,0,.86.41H82a1.1,1.1,0,0,0,1.1-1.1V10A1.1,1.1,0,0,0,82,8.94Z" transform="translate(-0.81 -0.84)"/>
<path class="cls-1" d="M106.9,21.59l-.44-.12a1.12,1.12,0,0,0-1.24.55,5.26,5.26,0,0,1-1,1.29,5.54,5.54,0,0,1-1.23.9,6.48,6.48,0,0,1-1.41.53,5.48,5.48,0,0,1-3.78-.36,6.41,6.41,0,0,1-2-1.5,7.29,7.29,0,0,1-1.35-2.21A7,7,0,0,1,94,18.06a7.53,7.53,0,0,1,.42-2.46,6.78,6.78,0,0,1,1.2-2.17,6.17,6.17,0,0,1,1.93-1.52,6,6,0,0,1,3.92-.42,5.28,5.28,0,0,1,1.29.47,4.27,4.27,0,0,1,1.11.81,5,5,0,0,1,.93,1.27,1.11,1.11,0,0,0,1.3.52l.44-.14a1.06,1.06,0,0,0,.68-.61,1.09,1.09,0,0,0,0-.9,7.37,7.37,0,0,0-2.67-3,7.7,7.7,0,0,0-4.34-1.19,8.35,8.35,0,0,0-3.79.85,8.6,8.6,0,0,0-2.79,2.18,9.64,9.64,0,0,0-1.7,3A9.78,9.78,0,0,0,91.36,18,10,10,0,0,0,92,21.47a10.24,10.24,0,0,0,1.77,3,9.21,9.21,0,0,0,2.75,2.2,7.63,7.63,0,0,0,3.6.87,8.81,8.81,0,0,0,2.18-.28,8.46,8.46,0,0,0,4-2.22,6.72,6.72,0,0,0,1.36-2,1.09,1.09,0,0,0-.73-1.51Z" transform="translate(-0.81 -0.84)"/>
<path class="cls-1" d="M148.79,8.94H135.71a1.1,1.1,0,0,0-1.1,1.1v.47a1.1,1.1,0,0,0,1.1,1.1h5.21v14.9a1.1,1.1,0,0,0,1.1,1.1h.46a1.1,1.1,0,0,0,1.1-1.1V11.61h5.21a1.11,1.11,0,0,0,1.1-1.1V10A1.11,1.11,0,0,0,148.79,8.94Z" transform="translate(-0.81 -0.84)"/>
<rect class="cls-2" x="22.25" y="24.16" width="15.28" height="2.66" rx="1.1"/>
<path class="cls-1" d="M155.66,8.45a1.89,1.89,0,0,1,.76.75,2.48,2.48,0,0,1,0,2.25,1.89,1.89,0,0,1-.76.75,2.43,2.43,0,0,1-1.14.26,2.46,2.46,0,0,1-1.14-.26,1.93,1.93,0,0,1-.75-.75,2.48,2.48,0,0,1,0-2.25,1.93,1.93,0,0,1,.75-.75,2.46,2.46,0,0,1,1.14-.26A2.43,2.43,0,0,1,155.66,8.45Zm-.29,3.29a1.46,1.46,0,0,0,.56-.57,1.75,1.75,0,0,0,.2-.85,1.81,1.81,0,0,0-.2-.85,1.44,1.44,0,0,0-.56-.56,1.89,1.89,0,0,0-1.69,0,1.37,1.37,0,0,0-.56.56,1.81,1.81,0,0,0-.2.85,1.75,1.75,0,0,0,.2.85,1.4,1.4,0,0,0,.56.57,2,2,0,0,0,1.69,0Zm0-1.39a.78.78,0,0,1-.36.25l.54.85h-.76l-.41-.79h-.17v.79h-.63V9.16h1.1a.87.87,0,0,1,.59.21.77.77,0,0,1,.1,1Zm-1.16-.12h.32q.33,0,.33-.27t-.33-.27h-.32Z" transform="translate(-0.81 -0.84)"/>
</svg>