<?xml version="1.0" encoding="utf-8"?>
<!-- Generator: Adobe Illustrator 16.0.0, SVG Export Plug-In . SVG Version: 6.00 Build 0)  -->
<!DOCTYPE svg PUBLIC "-//W3C//DTD SVG 1.0//EN" "http://www.w3.org/TR/2001/REC-SVG-20010904/DTD/svg10.dtd">
<svg version="1.0" id="Layer_1" xmlns="http://www.w3.org/2000/svg" xmlns:xlink="http://www.w3.org/1999/xlink" x="0px" y="0px"
	 width="481.557px" height="244.681px" viewBox="0 0 481.557 244.681" enable-background="new 0 0 481.557 244.681"
	 xml:space="preserve">
<g>
	<path fill="#C3002F" d="M220.223,27.57l18.351-0.003c3.673-12.556,4.817-16.775,4.817-16.775L268.298,0l-7.512,27.567h38.344
		l2.65,5.891c4.612,9.221,7.208,19.626,7.208,30.638c0,37.877-30.706,68.583-68.583,68.583s-68.581-30.706-68.581-68.583
		c0-26.832,15.408-50.065,37.86-61.332l7.451,17.695c-16.083,9.172-26.925,26.479-26.925,46.32c0,29.4,23.809,53.238,53.199,53.285
		c32.594-0.07,59.136-26.544,59.136-59.201c0-9.028-2.021-17.585-5.635-25.241l-1.146-2.164h-36.628
		c-4.905,17.439-14.697,52.849-15.33,55.451c-1.064,4.379,1.787,9.263,10.263,8.818c4.423-0.232,8.619-1.1,12.352-2.855l1.197,2.866
		c-6.825,5.823-15.59,8.918-25.143,9.256c-17.333,0.611-23.083-9.591-21.425-17.034c1.103-4.952,9.191-33.735,15.837-56.502h-14.239
		L220.223,27.57z"/>
	<path fill="#C3002F" d="M326.273,164.255c-8,0-13.899,6.701-13.899,14.449c0,5.6,3.85,9.449,9.6,9.449c4.701,0,8.3-2.4,10.65-6.6
		l-0.701-0.449c-1.9,2.947-4.449,4.648-7.05,4.648c-4.05,0-5.849-2.352-5.849-6.951c0-6.047,3.648-13.596,7.85-13.596
		c1.3,0,2.148,0.449,2.799,1.199c-1.601,0.701-2.499,2.35-2.499,3.6c0,2,1.349,3.199,3.449,3.199c2.1,0,3.45-1.799,3.45-3.6
		C334.073,166.406,331.173,164.255,326.273,164.255 M359.169,172.304l2.7-8.049l-6.699,0.65l-0.95,2.551
		c-0.851-1.801-1.95-3.201-4.95-3.201c-6.148,0-13.548,6.852-13.548,15.748c0,5.148,2.949,8.15,6.799,8.15
		c2.8,0,4.949-1.252,7.251-4.252c0.049,0.352,0.049,0.602,0.049,0.803c-0.049,2.65,1.551,3.449,4.299,3.449
		c1.901,0,4.5-0.602,6-1.15v-0.551c-3.301,0.201-4.5-0.049-4.5-1.498c0-0.6,0.2-1.402,0.5-2.4L359.169,172.304z M350.622,165.755
		c1.6,0,2.748,1.852,2.898,3.799l-3.849,13.049c-1.052,1.65-2.4,2.801-3.802,2.801c-2.199,0-3.398-1.799-3.398-5.002
		C342.471,174.755,346.271,165.755,350.622,165.755 M375.718,164.507l-10.4,0.648v0.6c3.102,0.199,3.5,0.85,3.102,2.449
		l-3.051,11.449l-2.398,8.1h6.698l4.399-17.398c2.101-1.9,4.148-3.051,5.85-3.051c1.551,0,2.1,0.801,2.1,2.053
		c0,0.748-0.2,1.898-0.5,2.947l-4.499,15.449h6.5l4.598-16.148c0.15-0.648,0.301-1.25,0.351-1.75c2.001-1.701,3.8-2.551,5.301-2.551
		c1.499,0,2.098,0.801,2.098,2.1c0,0.801-0.249,1.803-0.599,2.9l-3.15,10.051c-0.3,0.898-0.45,1.898-0.45,2.449
		c0,2.248,1.651,3.35,4.9,3.35c2.05,0,4.65-0.699,5.949-1.15v-0.551c-3.35,0.201-4.549,0-4.549-1.398c0-0.551,0.2-1.299,0.5-2.301
		l3.2-10.148c0.398-1.25,0.599-2.551,0.599-3.398c0-3.051-1.798-4.852-5.049-4.852c-2.55,0-5.551,1.502-8.75,4.699
		c-0.05-2.898-1.65-4.699-4.999-4.699c-2.9,0-6.1,1.85-8.999,5.049L375.718,164.507z M414.915,187.203c-1.45,0-2.9-0.75-3.302-2.248
		l4.3-16.299c1.201-1.049,2.451-1.752,3.752-1.752c2.349,0,3.448,1.752,3.448,4.701
		C423.113,177.705,419.413,187.203,414.915,187.203 M429.812,172.255c0-5.148-2.8-8-6.449-8c-2.749,0-4.899,1.25-7.1,3.352
		l4.151-15.701l-11.85,0.75v0.602c3.698,0.199,4.549,0.848,4.148,2.398l-4.898,19.35l-2.902,10.199
		c2.951,2.197,5.701,2.949,9.301,2.949C423.662,188.154,429.812,180.554,429.812,172.255 M450.961,164.255c-2.9,0-5.75,2.5-7.8,5.65
		l1.499-5.398l-10.397,0.648v0.6c3.099,0.199,3.498,0.85,3.099,2.449l-3.05,11.449l-2.4,8.1h6.698l4.15-16.498
		c1.7-1.898,4.051-4.199,6.05-4.248c-0.749,0.699-0.901,1.848-0.901,2.35c0,2.098,1.502,3.199,3.552,3.199
		c2.25,0,3.848-1.752,3.848-4.352C455.308,165.955,453.809,164.255,450.961,164.255 M478.857,172.304l2.7-8.049l-6.7,0.65
		l-0.95,2.551c-0.85-1.801-1.949-3.201-4.949-3.201c-6.149,0-13.549,6.852-13.549,15.748c0,5.148,2.951,8.15,6.802,8.15
		c2.799,0,4.947-1.252,7.249-4.252c0.049,0.352,0.049,0.602,0.049,0.803c-0.049,2.65,1.55,3.449,4.3,3.449
		c1.9,0,4.499-0.602,5.999-1.15v-0.551c-3.301,0.201-4.5-0.049-4.5-1.498c0-0.6,0.2-1.402,0.5-2.4L478.857,172.304z
		 M470.308,165.755c1.6,0,2.749,1.852,2.9,3.799l-3.851,13.049c-1.051,1.65-2.399,2.801-3.8,2.801c-2.201,0-3.4-1.799-3.4-5.002
		C462.158,174.755,465.959,165.755,470.308,165.755"/>
	<path fill="#C3002F" d="M13.135,186.371c0.802,1.152,2.508,2.006,4.964,2.006c6.317,0,13.585-7.02,13.585-15.891
		c0-5.164-2.958-8.023-6.565-8.023c-2.759,0-5.114,1.355-7.271,3.611l-0.1-0.1l0.953-3.262l-10.427,0.652v0.602
		c3.108,0.201,3.558,0.854,3.108,2.408l-5.415,20.502l-2.104,6.619c-0.253,0.852-0.905,1.352-3.863,1.453v0.602h15.392v-0.602
		c-4.261-0.15-4.913-0.652-4.662-1.703L13.135,186.371z M16.946,187.023c-1.453,0-2.908-0.852-3.359-2.559l3.961-15.139
		c1.001-1.152,2.857-2.205,4.111-2.205c2.255,0,3.308,1.453,3.308,4.662C24.967,178.048,21.308,187.023,16.946,187.023"/>
	<path fill="#C3002F" d="M54.293,164.462c-2.907,0-5.765,2.51-7.819,5.668l-0.101-0.104l1.604-5.312l-10.426,0.65v0.602
		c3.108,0.201,3.507,0.854,3.108,2.457l-3.059,11.48l-2.407,8.121h6.718l4.162-16.543c1.704-1.904,4.06-4.211,6.066-4.26
		c-0.753,0.699-0.903,1.854-0.903,2.355c0,2.105,1.503,3.209,3.559,3.209c2.256,0,3.86-1.758,3.86-4.363
		C58.655,166.167,57.15,164.462,54.293,164.462"/>
	<path fill="#C3002F" d="M74.998,165.416c1.505,0,2.306,0.904,2.306,2.809c0,3.209-1.504,7.568-10.078,7.469
		C68.38,170.378,71.89,165.416,74.998,165.416 M82.768,169.728c0-2.959-2.356-5.266-7.369-5.266c-8.824,0-15.19,6.867-15.19,14.74
		c0,5.766,3.961,9.225,9.424,9.225c4.714,0,8.574-2.305,11.129-6.268l-0.6-0.551c-2.007,2.807-5.014,4.412-7.671,4.412
		c-4.062,0-5.614-2.309-5.614-6.918c0-0.855,0.049-1.705,0.199-2.559C77.954,177.046,82.768,173.738,82.768,169.728"/>
	<path fill="#C3002F" d="M97.857,164.714l-10.428,0.65v0.604c3.108,0.199,3.509,0.852,3.108,2.455l-3.058,11.48l-2.405,8.121h6.717
		l4.411-17.445c2.105-1.904,4.161-3.057,5.865-3.057c1.556,0,2.107,0.801,2.107,2.053c0,0.754-0.202,1.908-0.502,2.959l-4.512,15.49
		h6.518l4.611-16.193c0.15-0.65,0.3-1.252,0.351-1.752c2.005-1.705,3.811-2.557,5.314-2.557c1.505,0,2.105,0.801,2.105,2.104
		c0,0.803-0.249,1.807-0.6,2.908l-3.16,10.076c-0.3,0.902-0.45,1.904-0.45,2.457c0,2.254,1.655,3.357,4.913,3.357
		c2.055,0,4.662-0.701,5.967-1.152v-0.551c-3.361,0.201-4.563,0-4.563-1.404c0-0.551,0.201-1.303,0.501-2.307l3.207-10.176
		c0.403-1.254,0.602-2.559,0.602-3.408c0-3.059-1.803-4.863-5.063-4.863c-2.557,0-5.564,1.504-8.773,4.713v-0.102
		c-0.051-2.807-1.654-4.611-5.013-4.611c-2.908,0-6.115,1.854-9.024,5.062l-0.199-0.15L97.857,164.714z"/>
	<path fill="#C3002F" d="M141.872,186.421c-3.71,0.252-5.114-0.152-5.114-1.754c0-0.551,0.202-1.205,0.452-2.107l5.415-17.846
		l-11.631,0.652v0.602c3.057,0.199,4.512,0.951,3.96,2.607l-4.21,13.936c-0.253,0.852-0.403,1.654-0.403,2.305
		c0,2.408,1.605,3.611,4.863,3.611c2.457,0,5.114-0.803,6.668-1.455V186.421z M137.56,157.498c0,2.104,1.455,3.207,3.009,3.207
		c2.457,0,4.512-2.154,4.512-4.863c0-2.057-1.453-3.207-3.059-3.207C139.566,152.634,137.56,154.789,137.56,157.498"/>
	<path fill="#C3002F" d="M154.103,188.427c7.821,0,10.678-3.811,10.678-8.072c0-3.207-2.304-4.863-6.166-6.516
		c-2.656-1.154-5.063-2.156-5.063-4.312c0-2.256,1.655-4.113,4.863-4.113c1.655,0,3.108,0.605,3.711,1.506
		c-1.104,0.752-1.556,1.904-1.556,2.809c0,1.303,1.305,2.658,3.009,2.658c2.257,0,3.258-1.607,3.258-3.359
		c0-2.508-2.857-4.562-7.819-4.562c-6.317,0-10.027,3.51-10.027,7.971c0,3.557,2.456,5.164,6.115,6.566
		c2.557,1.053,4.964,1.953,4.964,4.312c0,2.506-2.004,4.16-5.114,4.16c-1.655,0-3.408-0.652-4.311-1.553
		c0.952-0.652,1.403-1.605,1.403-2.658c0-1.605-1.253-2.809-3.008-2.809c-2.004,0-3.359,1.557-3.359,3.41
		C145.681,186.871,149.593,188.427,154.103,188.427"/>
	<path d="M189.312,166.32l0.401-1.254h-6.366l3.011-10.221l-7.272,2.6l-2.156,7.621h-4.613l-0.452,1.254h4.664l-4.212,14.438
		c-0.35,1.201-0.551,2.307-0.551,3.207c0,2.908,1.754,4.461,5.464,4.461c3.66,0,6.719-1.654,8.674-2.855v-0.551
		c-1.455,0.449-3.26,0.752-4.514,0.752c-1.903,0-2.857-0.703-2.857-2.408c0-0.703,0.15-1.654,0.452-2.758l4.011-14.285H189.312z"/>
	<path d="M205.003,165.968c1.604,0,2.757,1.854,2.907,3.809l-3.86,13.086c-1.053,1.652-2.405,2.807-3.809,2.807
		c-2.206,0-3.41-1.805-3.41-5.014C196.831,174.992,200.642,165.968,205.003,165.968 M213.575,172.535l2.707-8.072l-6.717,0.652
		l-0.952,2.557c-0.853-1.805-1.957-3.209-4.964-3.209c-6.167,0-13.585,6.867-13.585,15.793c0,5.164,2.958,8.172,6.818,8.172
		c2.808,0,4.962-1.252,7.268-4.262l0.101,0.049c-0.051,0.301-0.051,0.553-0.051,0.754c-0.05,2.656,1.556,3.459,4.312,3.459
		c1.906,0,4.512-0.604,6.016-1.154v-0.551c-3.309,0.201-4.513-0.049-4.513-1.504c0-0.602,0.201-1.402,0.503-2.406L213.575,172.535z"
		/>
	<path d="M235.382,152.082l-11.78,0.752v0.602c3.71,0.199,4.561,0.852,4.16,2.406l-2.405,9.223l-5.163,17.396
		c-0.251,0.902-0.403,1.705-0.403,2.408c0,2.355,1.554,3.559,4.814,3.559c2.456,0,5.213-0.803,6.767-1.455v-0.551
		c-3.811,0.201-5.164-0.152-5.164-1.857c0-0.549,0.15-1.201,0.352-2.004L235.382,152.082z"/>
	<path d="M250.247,165.416c1.505,0,2.308,0.904,2.308,2.809c0,3.209-1.505,7.568-10.078,7.469
		C243.631,170.378,247.139,165.416,250.247,165.416 M258.019,169.728c0-2.959-2.357-5.266-7.371-5.266
		c-8.822,0-15.19,6.867-15.19,14.74c0,5.766,3.961,9.225,9.425,9.225c4.713,0,8.572-2.305,11.13-6.268l-0.603-0.551
		c-2.005,2.807-5.013,4.412-7.669,4.412c-4.062,0-5.616-2.309-5.616-6.918c0-0.855,0.05-1.705,0.201-2.559
		C253.205,177.046,258.019,173.738,258.019,169.728"/>
	<path d="M262.729,179.904l-2.405,8.123h6.717l4.413-17.449c2.104-1.902,4.21-3.055,5.963-3.055c1.505,0,2.157,0.752,2.157,2.205
		c0,0.85-0.2,1.654-0.551,2.807l-3.157,10.076c-0.302,0.902-0.452,1.805-0.452,2.457c0,2.307,1.703,3.357,4.912,3.357
		c2.104,0,4.662-0.699,6.017-1.152v-0.551c-3.41,0.201-4.562,0-4.562-1.404c0-0.551,0.15-1.303,0.452-2.307l3.208-10.176
		c0.4-1.303,0.601-2.506,0.601-3.457c0-3.059-1.805-4.814-5.012-4.814c-2.908,0-6.268,1.854-9.226,5.014l-0.149-0.102l1.453-4.762
		l-10.428,0.65v0.602c3.108,0.201,3.509,0.855,3.108,2.457L262.729,179.904z"/>
	<path d="M309.285,166.32l0.401-1.254h-6.366l3.011-10.221l-7.271,2.6l-2.156,7.621h-4.613l-0.45,1.254h4.662l-4.212,14.438
		c-0.35,1.201-0.551,2.307-0.551,3.207c0,2.908,1.754,4.461,5.464,4.461c3.66,0,6.719-1.654,8.674-2.855v-0.551
		c-1.455,0.449-3.26,0.752-4.512,0.752c-1.906,0-2.857-0.703-2.857-2.408c0-0.703,0.148-1.654,0.45-2.758l4.01-14.285H309.285z"/>
	<path fill="#C3002F" d="M152.257,222.076l12.358,3.344l-12.331,3.355c0.183-1.064,0.278-2.158,0.278-3.275
		C152.562,224.332,152.457,223.187,152.257,222.076"/>
	<path fill="#C3002F" d="M114.2,225.5c0-10.594,8.587-19.184,19.181-19.184c10.593,0,19.18,8.59,19.18,19.184
		s-8.587,19.182-19.18,19.182C122.787,244.681,114.2,236.093,114.2,225.5"/>
	<path fill="#C3002F" d="M140.273,230.441c-1.391,2-3.616,3.377-6.171,3.631c-3.363,0.334-3.684-1.727-3.684-5.627v-5.639
		c0-3.947,0.14-5.732,3.617-5.732c1.598,0,2.396,0.328,2.396,1.08c0,0.516-1.456,1.08-1.456,2.867c0,1.879,1.175,3.146,3.195,3.146
		c1.739,0,3.007-1.268,3.007-3.006c0-1.537-0.825-2.898-2.194-3.834c-1.626-1.135-3.603-1.799-5.735-1.799
		c-5.544,0-10.038,4.494-10.038,10.039s4.494,10.039,10.038,10.039c3.418,0,6.438-1.709,8.252-4.318L140.273,230.441z"/>
	<path fill="#C3002F" d="M114.2,225.5c0-10.594,8.587-19.184,19.181-19.184c10.593,0,19.18,8.59,19.18,19.184
		s-8.587,19.182-19.18,19.182C122.787,244.681,114.2,236.093,114.2,225.5"/>
	<path fill="#FFFFFF" d="M140.273,230.441c-1.391,2-3.616,3.377-6.171,3.631c-3.363,0.334-3.684-1.727-3.684-5.627v-5.639
		c0-3.947,0.14-5.732,3.617-5.732c1.598,0,2.396,0.328,2.396,1.08c0,0.516-1.456,1.08-1.456,2.867c0,1.879,1.175,3.146,3.195,3.146
		c1.739,0,3.007-1.268,3.007-3.006c0-1.537-0.825-2.898-2.194-3.834c-1.626-1.135-3.603-1.799-5.735-1.799
		c-5.544,0-10.038,4.494-10.038,10.039s4.494,10.039,10.038,10.039c3.418,0,6.438-1.709,8.252-4.318L140.273,230.441z"/>
	<path fill="#FFFFFF" d="M152.257,222.076c0.2,1.111,0.305,2.256,0.305,3.424c0,1.117-0.095,2.211-0.278,3.275l-6.53,1.773v-10.232
		L152.257,222.076z"/>
	<path d="M177.537,229.019c0,0.098-0.137,0.256-0.412,0.471c-0.588,0.451-1.249,0.676-1.984,0.676c-1.078,0-1.901-0.457-2.469-1.365
		c-0.569-0.912-0.853-2.24-0.853-3.984c0-1.715,0.28-3.014,0.838-3.896c0.529-0.832,1.323-1.248,2.381-1.248
		c0.814,0,1.544,0.275,2.19,0.822c0.157,0.139,0.235,0.236,0.235,0.295c0,0.039-0.009,0.078-0.029,0.117l-0.426,0.559
		c-0.02,0.039-0.059,0.059-0.118,0.059c-0.029,0-0.196-0.117-0.5-0.354c-0.441-0.342-0.886-0.514-1.337-0.514
		c-0.666,0-1.156,0.324-1.47,0.969c-0.304,0.639-0.456,1.658-0.456,3.059c0,3,0.691,4.498,2.073,4.498
		c0.51,0,1.058-0.26,1.646-0.779c0.069-0.059,0.123-0.088,0.162-0.088c0.039,0,0.078,0.035,0.117,0.102l0.368,0.486
		C177.521,228.931,177.537,228.97,177.537,229.019"/>
	<path d="M182.284,228.343v-1.896c-1.832,0.01-2.748,0.529-2.748,1.559c0,0.344,0.098,0.627,0.294,0.852
		c0.206,0.217,0.465,0.324,0.779,0.324C181.099,229.181,181.657,228.902,182.284,228.343 M183.813,229.593
		c0,0.027-0.02,0.053-0.059,0.074l-0.632,0.395c-0.039,0.031-0.078,0.045-0.118,0.045c-0.186,0-0.372-0.309-0.558-0.926
		c-0.627,0.617-1.328,0.926-2.102,0.926c-0.597,0-1.073-0.182-1.426-0.543c-0.342-0.363-0.514-0.854-0.514-1.471
		c0-1.666,1.294-2.518,3.88-2.559v-0.484c0-0.471-0.103-0.803-0.308-0.998c-0.206-0.207-0.554-0.311-1.044-0.311
		c-0.49,0-1.073,0.143-1.749,0.428c-0.039,0.02-0.073,0.029-0.103,0.029c-0.049,0-0.083-0.025-0.103-0.074l-0.22-0.588l-0.015-0.117
		c0-0.068,0.132-0.162,0.397-0.279c0.608-0.264,1.259-0.396,1.955-0.396c1.528,0,2.293,0.686,2.293,2.057v2.777
		c0,0.814,0.132,1.455,0.397,1.928C183.803,229.544,183.813,229.572,183.813,229.593"/>
	<path d="M194.072,229.785c0,0.117-0.059,0.176-0.176,0.176h-0.75c-0.118,0-0.176-0.059-0.176-0.176v-5.059
		c0-0.713-0.314-1.07-0.941-1.07c-0.422,0-0.921,0.193-1.499,0.588v5.541c0,0.117-0.054,0.176-0.162,0.176h-0.764
		c-0.108,0-0.162-0.059-0.162-0.176v-5.043c0-0.727-0.313-1.086-0.941-1.086c-0.441,0-0.931,0.211-1.469,0.631v5.498
		c0,0.117-0.059,0.176-0.177,0.176h-0.749c-0.118,0-0.177-0.059-0.177-0.176v-5.277c0-0.412-0.088-0.824-0.264-1.236
		c-0.01-0.008-0.015-0.031-0.015-0.072c0-0.039,0.024-0.068,0.073-0.088l0.588-0.34c0.049-0.027,0.093-0.043,0.133-0.043
		c0.147,0,0.288,0.279,0.426,0.838c0.735-0.576,1.421-0.865,2.058-0.865c0.685,0,1.151,0.289,1.396,0.865
		c0.813-0.576,1.529-0.865,2.146-0.865c0.637,0,1.083,0.215,1.337,0.645c0.177,0.293,0.265,0.77,0.265,1.426V229.785z"/>
	<path d="M200.687,226.125c0-1.627-0.436-2.439-1.309-2.439c-0.48,0-1.063,0.24-1.749,0.719v4.189
		c0.441,0.383,0.951,0.572,1.529,0.572C200.176,229.166,200.687,228.152,200.687,226.125 M201.876,225.962
		c0,2.803-0.892,4.203-2.675,4.203c-0.676,0-1.303-0.238-1.881-0.721c-0.177,0.441-0.333,0.662-0.471,0.662
		c-0.029,0-0.068-0.014-0.117-0.045l-0.632-0.396c-0.03-0.027-0.044-0.055-0.044-0.072c0.009-0.039,0.024-0.074,0.044-0.105
		c0.274-0.361,0.411-0.875,0.411-1.543v-8.244c0-0.098,0.054-0.162,0.162-0.191l0.764-0.176c0.01-0.012,0.044-0.016,0.103-0.016
		s0.088,0.055,0.088,0.162v3.939c0.696-0.48,1.348-0.721,1.955-0.721C201.112,222.699,201.876,223.787,201.876,225.962"/>
	<path d="M207.521,222.935c0,0.02-0.01,0.053-0.029,0.102l-0.353,0.824c-0.01,0.029-0.035,0.043-0.074,0.043
		c0,0-0.083-0.023-0.25-0.074c-0.098-0.018-0.181-0.027-0.249-0.027c-0.324,0-0.809,0.371-1.456,1.115v4.865
		c0,0.119-0.053,0.178-0.161,0.178h-0.779c-0.108,0-0.162-0.059-0.162-0.178v-4.408c0-0.588-0.019-0.996-0.059-1.221
		c-0.039-0.225-0.137-0.475-0.294-0.75c-0.039-0.068-0.058-0.117-0.058-0.146c0-0.059,0.024-0.104,0.073-0.133l0.617-0.381
		c0.049-0.031,0.089-0.045,0.118-0.045c0.088,0,0.191,0.127,0.309,0.381c0.117,0.256,0.2,0.535,0.25,0.84
		c0.46-0.52,0.798-0.854,1.014-1c0.225-0.146,0.494-0.221,0.808-0.221c0.167,0,0.328,0.029,0.485,0.088
		C207.438,222.835,207.521,222.886,207.521,222.935"/>
	<path d="M212.18,228.343v-1.896c-1.832,0.01-2.748,0.529-2.748,1.559c0,0.344,0.098,0.627,0.294,0.852
		c0.205,0.217,0.465,0.324,0.779,0.324C210.995,229.181,211.552,228.902,212.18,228.343 M213.708,229.593
		c0,0.027-0.02,0.053-0.059,0.074l-0.632,0.395c-0.039,0.031-0.078,0.045-0.118,0.045c-0.186,0-0.372-0.309-0.558-0.926
		c-0.627,0.617-1.328,0.926-2.102,0.926c-0.598,0-1.073-0.182-1.426-0.543c-0.342-0.363-0.514-0.854-0.514-1.471
		c0-1.666,1.294-2.518,3.88-2.559v-0.484c0-0.471-0.103-0.803-0.308-0.998c-0.206-0.207-0.554-0.311-1.044-0.311
		c-0.49,0-1.073,0.143-1.749,0.428c-0.039,0.02-0.073,0.029-0.103,0.029c-0.049,0-0.083-0.025-0.103-0.074l-0.22-0.588l-0.015-0.117
		c0-0.068,0.132-0.162,0.397-0.279c0.607-0.264,1.259-0.396,1.955-0.396c1.528,0,2.293,0.686,2.293,2.057v2.777
		c0,0.814,0.132,1.455,0.397,1.928C213.699,229.544,213.708,229.572,213.708,229.593"/>
	<path d="M222.585,228.314v-4.16c-0.548-0.314-1.048-0.469-1.499-0.469c-0.549,0-0.945,0.205-1.19,0.615
		c-0.245,0.412-0.368,1.078-0.368,2c0,1.02,0.108,1.754,0.324,2.205c0.215,0.441,0.563,0.662,1.043,0.662
		C221.416,229.167,221.979,228.882,222.585,228.314 M224.173,229.607c0,0.029-0.025,0.061-0.074,0.088l-0.661,0.367
		c-0.029,0.029-0.069,0.045-0.117,0.045c-0.177,0-0.339-0.293-0.486-0.881c-0.833,0.627-1.563,0.939-2.19,0.939
		c-0.725,0-1.293-0.338-1.705-1.014c-0.402-0.676-0.602-1.607-0.602-2.793c0-1.137,0.235-2.029,0.705-2.674
		c0.471-0.658,1.112-0.986,1.926-0.986c0.509,0,1.048,0.158,1.616,0.471v-3.469c0-0.098,0.049-0.162,0.147-0.191l0.765-0.176
		c0.019-0.01,0.049-0.016,0.088-0.016c0.068,0,0.103,0.055,0.103,0.162v8.158c0,0.764,0.122,1.342,0.367,1.734
		C224.134,229.5,224.173,229.578,224.173,229.607"/>
	<path d="M230.082,225.771c-0.029-1.451-0.553-2.176-1.572-2.176c-1.009,0-1.544,0.725-1.603,2.176H230.082z M231.272,226.417
		c0,0.178-0.054,0.266-0.162,0.266h-4.218c0.078,1.656,0.725,2.484,1.94,2.484c0.519,0,1.088-0.178,1.705-0.531
		c0.049-0.029,0.098-0.043,0.147-0.043c0.039,0,0.074,0.025,0.103,0.074l0.264,0.572c0.02,0.039,0.03,0.074,0.03,0.104
		c0,0.107-0.177,0.244-0.529,0.412c-0.588,0.273-1.191,0.41-1.808,0.41c-0.931,0-1.676-0.332-2.234-0.998
		c-0.549-0.676-0.823-1.584-0.823-2.721c0-1.146,0.259-2.057,0.779-2.732c0.529-0.678,1.234-1.014,2.116-1.014
		c1.235,0,2.058,0.586,2.469,1.762C231.2,224.884,231.272,225.537,231.272,226.417"/>
	<path d="M241.252,229.019c0,0.098-0.137,0.256-0.412,0.471c-0.588,0.451-1.249,0.676-1.984,0.676c-1.078,0-1.901-0.457-2.469-1.365
		c-0.569-0.912-0.853-2.24-0.853-3.984c0-1.715,0.28-3.014,0.838-3.896c0.529-0.832,1.323-1.248,2.381-1.248
		c0.813,0,1.544,0.275,2.19,0.822c0.157,0.139,0.235,0.236,0.235,0.295c0,0.039-0.009,0.078-0.028,0.117l-0.426,0.559
		c-0.02,0.039-0.059,0.059-0.118,0.059c-0.029,0-0.196-0.117-0.499-0.354c-0.442-0.342-0.887-0.514-1.338-0.514
		c-0.666,0-1.156,0.324-1.47,0.969c-0.304,0.639-0.456,1.658-0.456,3.059c0,3,0.691,4.498,2.073,4.498
		c0.51,0,1.058-0.26,1.646-0.779c0.069-0.059,0.123-0.088,0.162-0.088s0.078,0.035,0.117,0.102l0.368,0.486
		C241.238,228.931,241.252,228.97,241.252,229.019"/>
	<path d="M246.985,226.373c0-1.832-0.584-2.748-1.75-2.748c-1.146,0-1.719,0.896-1.719,2.691c0,1.008,0.151,1.766,0.455,2.277
		c0.255,0.432,0.686,0.646,1.294,0.646c0.578,0,0.994-0.205,1.249-0.619C246.828,228.113,246.985,227.363,246.985,226.373
		 M248.175,226.388c0,1.186-0.265,2.111-0.794,2.777s-1.27,0.998-2.22,0.998c-0.892,0-1.588-0.32-2.087-0.967
		c-0.5-0.658-0.75-1.568-0.75-2.734c0-1.186,0.266-2.107,0.794-2.764c0.529-0.666,1.27-1,2.22-1c0.892,0,1.588,0.328,2.087,0.986
		C247.925,224.33,248.175,225.232,248.175,226.388"/>
	<path d="M258.332,229.785c0,0.117-0.059,0.176-0.177,0.176h-0.749c-0.118,0-0.177-0.059-0.177-0.176v-5.059
		c0-0.713-0.313-1.07-0.94-1.07c-0.422,0-0.921,0.193-1.499,0.588v5.541c0,0.117-0.054,0.176-0.162,0.176h-0.764
		c-0.108,0-0.162-0.059-0.162-0.176v-5.043c0-0.727-0.314-1.086-0.941-1.086c-0.44,0-0.931,0.211-1.47,0.631v5.498
		c0,0.117-0.058,0.176-0.176,0.176h-0.75c-0.117,0-0.176-0.059-0.176-0.176v-5.277c0-0.412-0.087-0.824-0.266-1.236
		c-0.009-0.008-0.014-0.031-0.014-0.072c0-0.039,0.024-0.068,0.073-0.088l0.588-0.34c0.049-0.027,0.093-0.043,0.132-0.043
		c0.149,0,0.29,0.279,0.427,0.838c0.735-0.576,1.421-0.865,2.059-0.865c0.685,0,1.15,0.289,1.396,0.865
		c0.813-0.576,1.529-0.865,2.146-0.865c0.637,0,1.083,0.215,1.337,0.645c0.177,0.293,0.265,0.77,0.265,1.426V229.785z"/>
	<path d="M264.68,225.771c-0.028-1.451-0.553-2.176-1.571-2.176c-1.01,0-1.544,0.725-1.604,2.176H264.68z M265.872,226.417
		c0,0.178-0.054,0.266-0.162,0.266h-4.218c0.078,1.656,0.725,2.484,1.94,2.484c0.519,0,1.088-0.178,1.704-0.531
		c0.05-0.029,0.099-0.043,0.147-0.043c0.039,0,0.073,0.025,0.103,0.074l0.265,0.572c0.02,0.039,0.029,0.074,0.029,0.104
		c0,0.107-0.177,0.244-0.528,0.412c-0.588,0.273-1.191,0.41-1.809,0.41c-0.931,0-1.676-0.332-2.233-0.998
		c-0.549-0.676-0.823-1.584-0.823-2.721c0-1.146,0.259-2.057,0.779-2.732c0.528-0.678,1.233-1.014,2.116-1.014
		c1.234,0,2.058,0.586,2.469,1.762C265.797,224.884,265.872,225.537,265.872,226.417"/>
	<path d="M271.236,222.935c0,0.02-0.01,0.053-0.028,0.102l-0.354,0.824c-0.01,0.029-0.035,0.043-0.074,0.043
		c0,0-0.082-0.023-0.25-0.074c-0.098-0.018-0.181-0.027-0.248-0.027c-0.324,0-0.81,0.371-1.456,1.115v4.865
		c0,0.119-0.054,0.178-0.161,0.178h-0.779c-0.108,0-0.162-0.059-0.162-0.178v-4.408c0-0.588-0.019-0.996-0.059-1.221
		c-0.039-0.225-0.138-0.475-0.294-0.75c-0.039-0.068-0.059-0.117-0.059-0.146c0-0.059,0.024-0.104,0.073-0.133l0.617-0.381
		c0.05-0.031,0.089-0.045,0.118-0.045c0.088,0,0.19,0.127,0.309,0.381c0.118,0.256,0.2,0.535,0.25,0.84
		c0.46-0.52,0.798-0.854,1.014-1c0.226-0.146,0.494-0.221,0.809-0.221c0.167,0,0.328,0.029,0.484,0.088
		C271.153,222.835,271.236,222.886,271.236,222.935"/>
	<path d="M277.013,223.449l-0.016,0.074l-0.339,0.602c-0.028,0.059-0.067,0.088-0.116,0.088c-0.02,0-0.123-0.049-0.309-0.146
		c-0.48-0.254-0.907-0.383-1.279-0.383c-1.205,0-1.808,0.912-1.808,2.734c0,1.832,0.559,2.75,1.676,2.75
		c0.5,0,1.068-0.182,1.705-0.545c0.039-0.021,0.068-0.029,0.088-0.029c0.049,0,0.078,0.029,0.088,0.088l0.25,0.604
		c0.021,0.039,0.029,0.078,0.029,0.117c0,0.098-0.2,0.23-0.603,0.396c-0.401,0.156-0.789,0.27-1.16,0.338l-0.044,0.631
		c0.743,0.078,1.116,0.398,1.116,0.955c0,0.346-0.137,0.623-0.412,0.84c-0.273,0.215-0.638,0.322-1.088,0.322
		c-0.588,0-0.881-0.092-0.881-0.279v-0.117l0.073-0.441c0-0.059,0.025-0.088,0.074-0.088c0.067,0,0.186,0.02,0.352,0.059
		c0.177,0.051,0.314,0.074,0.412,0.074c0.392,0,0.588-0.119,0.588-0.352c0-0.229-0.245-0.338-0.734-0.338
		c-0.295,0-0.432-0.064-0.412-0.193c0.01-0.088,0.015-0.141,0.015-0.16l0.088-0.896c-1.636-0.197-2.454-1.383-2.454-3.557
		c0-1.217,0.264-2.168,0.793-2.852c0.539-0.697,1.284-1.043,2.234-1.043c0.265,0,0.651,0.066,1.162,0.205
		C276.708,223.082,277.013,223.261,277.013,223.449"/>
	<path d="M285.185,228.314v-4.16c-0.549-0.314-1.049-0.469-1.5-0.469c-0.548,0-0.945,0.205-1.19,0.615
		c-0.244,0.412-0.367,1.078-0.367,2c0,1.02,0.107,1.754,0.323,2.205c0.216,0.441,0.563,0.662,1.043,0.662
		C284.014,229.167,284.577,228.882,285.185,228.314 M286.772,229.607c0,0.029-0.025,0.061-0.073,0.088l-0.662,0.367
		c-0.028,0.029-0.068,0.045-0.116,0.045c-0.178,0-0.339-0.293-0.485-0.881c-0.834,0.627-1.563,0.939-2.191,0.939
		c-0.725,0-1.293-0.338-1.704-1.014c-0.401-0.676-0.603-1.607-0.603-2.793c0-1.137,0.235-2.029,0.705-2.674
		c0.471-0.658,1.112-0.986,1.926-0.986c0.509,0,1.048,0.158,1.617,0.471v-3.469c0-0.098,0.048-0.162,0.146-0.191l0.765-0.176
		c0.019-0.01,0.049-0.016,0.088-0.016c0.069,0,0.103,0.055,0.103,0.162v8.158c0,0.764,0.122,1.342,0.367,1.734
		C286.733,229.5,286.772,229.578,286.772,229.607"/>
	<path d="M292.68,225.771c-0.029-1.451-0.553-2.176-1.572-2.176c-1.01,0-1.544,0.725-1.603,2.176H292.68z M293.872,226.417
		c0,0.178-0.055,0.266-0.162,0.266h-4.218c0.077,1.656,0.725,2.484,1.939,2.484c0.52,0,1.087-0.178,1.705-0.531
		c0.048-0.029,0.098-0.043,0.147-0.043c0.039,0,0.072,0.025,0.103,0.074l0.264,0.572c0.021,0.039,0.03,0.074,0.03,0.104
		c0,0.107-0.177,0.244-0.529,0.412c-0.588,0.273-1.19,0.41-1.808,0.41c-0.931,0-1.676-0.332-2.234-0.998
		c-0.55-0.676-0.822-1.584-0.822-2.721c0-1.146,0.259-2.057,0.778-2.732c0.529-0.678,1.234-1.014,2.116-1.014
		c1.235,0,2.058,0.586,2.469,1.762C293.798,224.884,293.872,225.537,293.872,226.417"/>
	<path d="M303.411,227.138c0-0.744-0.279-1.273-0.838-1.588c-0.284-0.156-0.687-0.234-1.205-0.234h-1.382v3.66h1.439
		c0.599,0,1.049-0.117,1.354-0.354C303.2,228.289,303.411,227.792,303.411,227.138 M303.013,222.419
		c0-0.568-0.127-0.969-0.382-1.205c-0.245-0.234-0.671-0.352-1.279-0.352h-1.366v3.467h1.059c0.577,0,0.994-0.088,1.249-0.264
		C302.774,223.734,303.013,223.185,303.013,222.419 M304.718,227.183c0,0.615-0.151,1.16-0.456,1.631
		c-0.304,0.461-0.715,0.777-1.233,0.955c-0.374,0.127-1.011,0.189-1.911,0.189h-2.131c-0.138,0-0.205-0.066-0.205-0.205v-9.672
		c0-0.135,0.067-0.205,0.205-0.205h2.395c0.922,0,1.588,0.133,1.999,0.398c0.628,0.4,0.942,1.072,0.942,2.012
		c0,1.137-0.481,1.938-1.441,2.396c0.48,0.139,0.832,0.309,1.059,0.516C304.458,225.679,304.718,226.339,304.718,227.183"/>
	<path d="M309.965,228.343v-1.896c-1.832,0.01-2.748,0.529-2.748,1.559c0,0.344,0.098,0.627,0.294,0.852
		c0.205,0.217,0.464,0.324,0.779,0.324C308.78,229.181,309.338,228.902,309.965,228.343 M311.495,229.593
		c0,0.027-0.021,0.053-0.061,0.074l-0.631,0.395c-0.039,0.031-0.079,0.045-0.119,0.045c-0.185,0-0.371-0.309-0.557-0.926
		c-0.627,0.617-1.328,0.926-2.103,0.926c-0.598,0-1.072-0.182-1.427-0.543c-0.342-0.363-0.513-0.854-0.513-1.471
		c0-1.666,1.293-2.518,3.88-2.559v-0.484c0-0.471-0.103-0.803-0.308-0.998c-0.206-0.207-0.555-0.311-1.044-0.311
		c-0.49,0-1.073,0.143-1.749,0.428c-0.039,0.02-0.074,0.029-0.104,0.029c-0.049,0-0.083-0.025-0.103-0.074l-0.221-0.588
		l-0.015-0.117c0-0.068,0.132-0.162,0.397-0.279c0.606-0.264,1.259-0.396,1.954-0.396c1.528,0,2.294,0.686,2.294,2.057v2.777
		c0,0.814,0.132,1.455,0.396,1.928C311.485,229.544,311.495,229.572,311.495,229.593"/>
	<path d="M317.241,222.935c0,0.02-0.01,0.053-0.028,0.102l-0.354,0.824c-0.01,0.029-0.035,0.043-0.073,0.043
		c0,0-0.083-0.023-0.25-0.074c-0.099-0.018-0.182-0.027-0.249-0.027c-0.324,0-0.81,0.371-1.455,1.115v4.865
		c0,0.119-0.055,0.178-0.162,0.178h-0.779c-0.108,0-0.162-0.059-0.162-0.178v-4.408c0-0.588-0.019-0.996-0.059-1.221
		c-0.039-0.225-0.138-0.475-0.294-0.75c-0.039-0.068-0.059-0.117-0.059-0.146c0-0.059,0.024-0.104,0.073-0.133l0.617-0.381
		c0.05-0.031,0.087-0.045,0.118-0.045c0.088,0,0.19,0.127,0.309,0.381c0.117,0.256,0.2,0.535,0.25,0.84
		c0.46-0.52,0.798-0.854,1.014-1c0.226-0.146,0.494-0.221,0.809-0.221c0.167,0,0.328,0.029,0.484,0.088
		C317.158,222.835,317.241,222.886,317.241,222.935"/>
	<path d="M323.018,223.64l-0.016,0.088l-0.322,0.572c-0.039,0.068-0.079,0.104-0.118,0.104s-0.078-0.02-0.117-0.059
		c-0.599-0.439-1.104-0.662-1.514-0.662c-1.187,0-1.779,0.912-1.779,2.734c0,1.832,0.544,2.748,1.632,2.748
		c0.323,0,0.632-0.068,0.926-0.205c0.166-0.078,0.437-0.25,0.809-0.514c0.039-0.031,0.073-0.045,0.104-0.045
		c0.038,0,0.073,0.029,0.103,0.088l0.22,0.559c0.02,0.061,0.035,0.109,0.045,0.148c0,0.066-0.079,0.162-0.236,0.277
		c-0.627,0.463-1.312,0.691-2.057,0.691c-0.872,0-1.554-0.314-2.043-0.941c-0.49-0.637-0.735-1.514-0.735-2.631
		c0-1.205,0.265-2.154,0.793-2.85c0.539-0.697,1.27-1.045,2.19-1.045c0.646,0,1.245,0.191,1.794,0.574
		C322.91,223.417,323.018,223.541,323.018,223.64"/>
	<path d="M328.308,225.771c-0.028-1.451-0.553-2.176-1.571-2.176c-1.011,0-1.545,0.725-1.604,2.176H328.308z M329.5,226.417
		c0,0.178-0.054,0.266-0.162,0.266h-4.218c0.078,1.656,0.725,2.484,1.939,2.484c0.52,0,1.087-0.178,1.705-0.531
		c0.048-0.029,0.099-0.043,0.147-0.043c0.039,0,0.074,0.025,0.103,0.074l0.265,0.572c0.02,0.039,0.029,0.074,0.029,0.104
		c0,0.107-0.177,0.244-0.528,0.412c-0.589,0.273-1.191,0.41-1.809,0.41c-0.931,0-1.676-0.332-2.233-0.998
		c-0.551-0.676-0.823-1.584-0.823-2.721c0-1.146,0.259-2.057,0.779-2.732c0.528-0.678,1.233-1.014,2.115-1.014
		c1.235,0,2.059,0.586,2.47,1.762C329.425,224.884,329.5,225.537,329.5,226.417"/>
	<path d="M333.982,229.755c0,0.078-0.142,0.154-0.426,0.232c-0.274,0.078-0.55,0.119-0.823,0.119c-0.854,0-1.354-0.342-1.5-1.029
		c-0.049-0.225-0.072-0.826-0.072-1.807v-7.584c0-0.098,0.053-0.158,0.162-0.178l0.748-0.176c0.011-0.012,0.045-0.016,0.104-0.016
		s0.088,0.055,0.088,0.162v7.805c0,0.766,0.01,1.217,0.03,1.354c0.048,0.371,0.249,0.557,0.602,0.557
		c0.206,0,0.427-0.057,0.662-0.176c0.059-0.02,0.099-0.029,0.116-0.029c0.039,0,0.075,0.035,0.104,0.104l0.178,0.543
		C333.972,229.695,333.982,229.734,333.982,229.755"/>
	<path d="M339.186,226.373c0-1.832-0.584-2.748-1.75-2.748c-1.146,0-1.72,0.896-1.72,2.691c0,1.008,0.151,1.766,0.455,2.277
		c0.255,0.432,0.687,0.646,1.294,0.646c0.578,0,0.994-0.205,1.249-0.619C339.029,228.113,339.186,227.363,339.186,226.373
		 M340.375,226.388c0,1.186-0.264,2.111-0.794,2.777c-0.529,0.666-1.27,0.998-2.219,0.998c-0.893,0-1.588-0.32-2.087-0.967
		c-0.5-0.658-0.75-1.568-0.75-2.734c0-1.186,0.265-2.107,0.794-2.764c0.529-0.666,1.269-1,2.219-1c0.893,0,1.588,0.328,2.087,0.986
		C340.125,224.33,340.375,225.232,340.375,226.388"/>
	<path d="M347.534,229.785c0,0.117-0.054,0.176-0.162,0.176h-0.779c-0.106,0-0.16-0.059-0.16-0.176v-4.91
		c0-0.814-0.324-1.219-0.971-1.219c-0.628,0-1.273,0.309-1.939,0.926v5.203c0,0.117-0.055,0.176-0.162,0.176h-0.779
		c-0.107,0-0.162-0.059-0.162-0.176v-5.043c0-0.529-0.093-0.998-0.279-1.41c-0.02-0.039-0.029-0.068-0.029-0.088
		c0-0.039,0.024-0.068,0.074-0.088l0.66-0.385c0.051-0.027,0.089-0.043,0.118-0.043c0.187,0,0.338,0.324,0.456,0.971
		c0.833-0.666,1.621-0.998,2.366-0.998c0.725,0,1.225,0.232,1.499,0.705c0.167,0.281,0.25,0.777,0.25,1.482V229.785z"/>
	<path d="M353.177,228.343v-1.896c-1.832,0.01-2.748,0.529-2.748,1.559c0,0.344,0.099,0.627,0.294,0.852
		c0.205,0.217,0.465,0.324,0.779,0.324C351.993,229.181,352.55,228.902,353.177,228.343 M354.707,229.593
		c0,0.027-0.021,0.053-0.06,0.074l-0.632,0.395c-0.038,0.031-0.078,0.045-0.118,0.045c-0.186,0-0.371-0.309-0.558-0.926
		c-0.627,0.617-1.328,0.926-2.102,0.926c-0.599,0-1.073-0.182-1.427-0.543c-0.342-0.363-0.514-0.854-0.514-1.471
		c0-1.666,1.294-2.518,3.88-2.559v-0.484c0-0.471-0.103-0.803-0.308-0.998c-0.206-0.207-0.554-0.311-1.044-0.311
		s-1.073,0.143-1.749,0.428c-0.039,0.02-0.074,0.029-0.104,0.029c-0.049,0-0.083-0.025-0.103-0.074l-0.22-0.588l-0.016-0.117
		c0-0.068,0.133-0.162,0.397-0.279c0.606-0.264,1.259-0.396,1.955-0.396c1.527,0,2.293,0.686,2.293,2.057v2.777
		c0,0.814,0.132,1.455,0.396,1.928C354.697,229.544,354.707,229.572,354.707,229.593"/>
</g>
</svg>
