<svg xmlns="http://www.w3.org/2000/svg" viewBox="0 0 15.52 15.52">
  <g transform="translate(-35.209991,-112.74236)" >
    <circle r="7.10" cy="120.50" cx="42.97" style="fill:#edeeee;fill-opacity:1;stroke:#ff0000;stroke-width:1.33;stroke-opacity:0" />
    <g transform="matrix(0.26458333,0,0,0.26458333,35.062769,116.95038)">
      <path fill="#285c77" d="M 35.78,10.53 A 8.42,8.42 0 0 0 33.62,9.59 C 32.86,9.37 32,9.16 31,9 30,8.84 29.36,8.63 28.74,8.45 a 5,5 0 0 1 -1.32,-0.56 1.51,1.51 0 0 1 -0.55,-0.58 2.15,2.15 0 0 1 -0.18,-1 3.14,3.14 0 0 1 0.21,-1.2 2.1,2.1 0 0 1 0.63,-0.81 3.41,3.41 0 0 1 1.27,-0.59 7.59,7.59 0 0 1 2,-0.24 6.67,6.67 0 0 1 2.23,0.32 4.41,4.41 0 0 1 1.67,1.21 1.08,1.08 0 0 0 0.81,0.36 1.1,1.1 0 0 0 0.8,-0.35 l 0.31,-0.32 a 1.11,1.11 0 0 0 0,-1.49 6.69,6.69 0 0 0 -2.56,-1.81 10.48,10.48 0 0 0 -5.81,-0.19 6.21,6.21 0 0 0 -2.18,1 4.72,4.72 0 0 0 -1.48,1.8 5.27,5.27 0 0 0 -0.53,2.38 4.52,4.52 0 0 0 0.51,2.22 4.1,4.1 0 0 0 1.49,1.55 7.72,7.72 0 0 0 2.07,0.87 c 0.75,0.2 1.59,0.39 2.51,0.56 a 21.6,21.6 0 0 1 2.34,0.58 5.56,5.56 0 0 1 1.42,0.64 1.91,1.91 0 0 1 0.64,0.7 2.27,2.27 0 0 1 0.21,1.06 2,2 0 0 1 -0.93,1.85 6.12,6.12 0 0 1 -3.29,0.74 8.22,8.22 0 0 1 -3,-0.5 A 6.79,6.79 0 0 1 25.75,15 1.13,1.13 0 0 0 24.24,14.93 l -0.36,0.3 a 1.14,1.14 0 0 0 -0.37,0.8 1.11,1.11 0 0 0 0.32,0.81 9.6,9.6 0 0 0 3.24,2.16 10.6,10.6 0 0 0 3.94,0.69 8.45,8.45 0 0 0 4.88,-1.26 4.57,4.57 0 0 0 2,-4 4.34,4.34 0 0 0 -2.13,-3.94 z" transform="translate(-0.81,-0.84)" />
      <rect fill="#f2ab29" x="22.25" y="24.16" width="15.28" height="2.66" rx="1.1" />
    </g>
  </g>
</svg>
